<svg xmlns="http://www.w3.org/2000/svg" width="600" height="280" viewBox="0 0 600 280" role="img" aria-label="BTC Market Regime Lab data engineering illustration"><defs><linearGradient id="g" x1="0" y1="0" x2="1" y2="1"><stop stop-color="#111827"/><stop offset="1" stop-color="#1e1b4b"/></linearGradient><linearGradient id="line" x1="0" y1="0" x2="1" y2="0"><stop stop-color="#22d3ee"/><stop offset="1" stop-color="#a78bfa"/></linearGradient></defs><rect width="600" height="280" rx="20" fill="url(#g)"/><g stroke="#334155" stroke-width="1" opacity=".6"><path d="M55 55v170h490M55 90h490M55 135h490M55 180h490M135 55v170M215 55v170M295 55v170M375 55v170M455 55v170"/></g><path d="M55 190 92 171 129 181 166 132 203 148 240 100 277 119 314 86 351 112 388 70 425 88 462 57 499 81 545 48" fill="none" stroke="url(#line)" stroke-width="5" stroke-linecap="round" stroke-linejoin="round"/><g fill="#111827" stroke="#a78bfa" stroke-width="2"><circle cx="166" cy="132" r="6"/><circle cx="314" cy="86" r="6"/><circle cx="462" cy="57" r="6"/></g><text x="70" y="247" font-family="Inter,Segoe UI,Arial,sans-serif" font-size="15" font-weight="600" fill="#c4b5fd">DATA · REGIMES · BACKTESTING · API</text></svg>
